<?xml version="1.0" encoding="UTF-8" standalone="no"?>
<!DOCTYPE svg PUBLIC "-//W3C//DTD SVG 1.1//EN"
 "http://www.w3.org/Graphics/SVG/1.1/DTD/svg11.dtd">
<!-- Generated by graphviz version 2.47.3 (20210619.1520)
 -->
<!-- Title: dependencies Pages: 1 -->
<svg width="1032pt" height="315pt"
 viewBox="0.00 0.00 1032.00 314.80" xmlns="http://www.w3.org/2000/svg" xmlns:xlink="http://www.w3.org/1999/xlink">
<g id="graph0" class="graph" transform="scale(1 1) rotate(0) translate(4 310.8)">
<title>dependencies</title>
<polygon fill="white" stroke="transparent" points="-4,4 -4,-310.8 1028,-310.8 1028,4 -4,4"/>
<text text-anchor="middle" x="512" y="-8.2" font-family="sans-serif" font-size="14.00">dependencies</text>
<g id="clust1" class="cluster">
<title>cluster_AppModule</title>
<polygon fill="none" stroke="black" stroke-dasharray="1,5" points="276,-32.8 276,-298.8 428,-298.8 428,-32.8 276,-32.8"/>
</g>
<g id="clust3" class="cluster">
<title>cluster_AppModule_imports</title>
<polygon fill="none" stroke="black" points="306,-40.8 306,-233.8 420,-233.8 420,-40.8 306,-40.8"/>
</g>
<g id="clust7" class="cluster">
<title>cluster_AuthModule</title>
<polygon fill="none" stroke="black" stroke-dasharray="1,5" points="734,-97.8 734,-165.8 1016,-165.8 1016,-97.8 734,-97.8"/>
</g>
<g id="clust12" class="cluster">
<title>cluster_AuthModule_providers</title>
<polygon fill="none" stroke="black" points="742,-105.8 742,-157.8 1008,-157.8 1008,-105.8 742,-105.8"/>
</g>
<g id="clust13" class="cluster">
<title>cluster_PrismaModule</title>
<polygon fill="none" stroke="black" stroke-dasharray="1,5" points="436,-97.8 436,-165.8 726,-165.8 726,-97.8 436,-97.8"/>
</g>
<g id="clust16" class="cluster">
<title>cluster_PrismaModule_exports</title>
<polygon fill="none" stroke="black" points="602,-105.8 602,-157.8 718,-157.8 718,-105.8 602,-105.8"/>
</g>
<g id="clust18" class="cluster">
<title>cluster_PrismaModule_providers</title>
<polygon fill="none" stroke="black" points="444,-105.8 444,-157.8 594,-157.8 594,-105.8 444,-105.8"/>
</g>
<g id="clust19" class="cluster">
<title>cluster_UserModule</title>
<polygon fill="none" stroke="black" stroke-dasharray="1,5" points="8,-173.8 8,-241.8 268,-241.8 268,-173.8 8,-173.8"/>
</g>
<g id="clust22" class="cluster">
<title>cluster_UserModule_exports</title>
<polygon fill="none" stroke="black" points="156,-181.8 156,-233.8 260,-233.8 260,-181.8 156,-181.8"/>
</g>
<g id="clust24" class="cluster">
<title>cluster_UserModule_providers</title>
<polygon fill="none" stroke="black" points="16,-181.8 16,-233.8 148,-233.8 148,-181.8 16,-181.8"/>
</g>
<!-- AuthModule -->
<g id="node1" class="node">
<title>AuthModule</title>
<polygon fill="#8dd3c7" stroke="black" points="411.55,-225.8 408.55,-229.8 387.55,-229.8 384.55,-225.8 324.45,-225.8 324.45,-189.8 411.55,-189.8 411.55,-225.8"/>
<text text-anchor="middle" x="368" y="-203.6" font-family="Times,serif" font-size="14.00">AuthModule</text>
</g>
<!-- AppModule -->
<g id="node4" class="node">
<title>AppModule</title>
<polygon fill="#8dd3c7" stroke="black" points="367.66,-290.8 364.66,-294.8 343.66,-294.8 340.66,-290.8 284.34,-290.8 284.34,-254.8 367.66,-254.8 367.66,-290.8"/>
<text text-anchor="middle" x="326" y="-268.6" font-family="Times,serif" font-size="14.00">AppModule</text>
</g>
<!-- AuthModule&#45;&gt;AppModule -->
<g id="edge1" class="edge">
<title>AuthModule&#45;&gt;AppModule</title>
<path fill="none" stroke="black" d="M346.03,-225.91C346.03,-225.91 346.03,-244.79 346.03,-244.79"/>
<polygon fill="black" stroke="black" points="342.53,-244.79 346.03,-254.79 349.53,-244.79 342.53,-244.79"/>
</g>
<!-- PrismaModule -->
<g id="node2" class="node">
<title>PrismaModule</title>
<polygon fill="#8dd3c7" stroke="black" points="412.43,-84.8 409.43,-88.8 388.43,-88.8 385.43,-84.8 313.57,-84.8 313.57,-48.8 412.43,-48.8 412.43,-84.8"/>
<text text-anchor="middle" x="363" y="-62.6" font-family="Times,serif" font-size="14.00">PrismaModule</text>
</g>
<!-- UserModule -->
<g id="node3" class="node">
<title>UserModule</title>
<polygon fill="#8dd3c7" stroke="black" points="399.98,-149.8 396.98,-153.8 375.98,-153.8 372.98,-149.8 314.02,-149.8 314.02,-113.8 399.98,-113.8 399.98,-149.8"/>
<text text-anchor="middle" x="357" y="-127.6" font-family="Times,serif" font-size="14.00">UserModule</text>
</g>
<!-- PrismaModule&#45;&gt;UserModule -->
<g id="edge9" class="edge">
<title>PrismaModule&#45;&gt;UserModule</title>
<path fill="none" stroke="black" d="M357,-84.91C357,-84.91 357,-103.79 357,-103.79"/>
<polygon fill="black" stroke="black" points="353.5,-103.79 357,-113.79 360.5,-103.79 353.5,-103.79"/>
</g>
<!-- PrismaModule&#45;&gt;AppModule -->
<g id="edge2" class="edge">
<title>PrismaModule&#45;&gt;AppModule</title>
<path fill="none" stroke="black" d="M313.51,-66.8C305.07,-66.8 298.98,-66.8 298.98,-66.8 298.98,-66.8 298.98,-244.52 298.98,-244.52"/>
<polygon fill="black" stroke="black" points="295.48,-244.52 298.98,-254.52 302.48,-244.52 295.48,-244.52"/>
</g>
<!-- PrismaService  -->
<g id="node7" class="node">
<title>PrismaService </title>
<polygon fill="#fb8072" stroke="black" points="710.36,-149.8 609.64,-149.8 609.64,-113.8 710.36,-113.8 710.36,-149.8"/>
<text text-anchor="middle" x="660" y="-127.6" font-family="Times,serif" font-size="14.00">PrismaService </text>
</g>
<!-- PrismaModule&#45;&gt;PrismaService  -->
<g id="edge7" class="edge">
<title>PrismaModule&#45;&gt;PrismaService </title>
<path fill="none" stroke="black" stroke-dasharray="5,2" d="M412.38,-66.8C496.83,-66.8 660,-66.8 660,-66.8 660,-66.8 660,-103.69 660,-103.69"/>
<polygon fill="black" stroke="black" points="656.5,-103.69 660,-113.69 663.5,-103.69 656.5,-103.69"/>
</g>
<!-- UserModule&#45;&gt;AuthModule -->
<g id="edge4" class="edge">
<title>UserModule&#45;&gt;AuthModule</title>
<path fill="none" stroke="black" d="M362.11,-149.81C362.11,-149.81 362.11,-179.65 362.11,-179.65"/>
<polygon fill="black" stroke="black" points="358.61,-179.65 362.11,-189.65 365.61,-179.65 358.61,-179.65"/>
</g>
<!-- UserModule&#45;&gt;AppModule -->
<g id="edge3" class="edge">
<title>UserModule&#45;&gt;AppModule</title>
<path fill="none" stroke="black" d="M320.82,-149.94C320.82,-149.94 320.82,-244.73 320.82,-244.73"/>
<polygon fill="black" stroke="black" points="317.32,-244.72 320.82,-254.73 324.32,-244.73 317.32,-244.72"/>
</g>
<!-- UserService  -->
<g id="node9" class="node">
<title>UserService </title>
<polygon fill="#fb8072" stroke="black" points="251.9,-225.8 164.1,-225.8 164.1,-189.8 251.9,-189.8 251.9,-225.8"/>
<text text-anchor="middle" x="208" y="-203.6" font-family="Times,serif" font-size="14.00">UserService </text>
</g>
<!-- UserModule&#45;&gt;UserService  -->
<g id="edge10" class="edge">
<title>UserModule&#45;&gt;UserService </title>
<path fill="none" stroke="black" stroke-dasharray="5,2" d="M317.42,-149.81C317.42,-172.29 317.42,-207.8 317.42,-207.8 317.42,-207.8 262.19,-207.8 262.19,-207.8"/>
<polygon fill="black" stroke="black" points="262.19,-204.3 252.19,-207.8 262.19,-211.3 262.19,-204.3"/>
</g>
<!-- AuthService -->
<g id="node5" class="node">
<title>AuthService</title>
<ellipse fill="#fdb462" stroke="black" cx="941" cy="-131.8" rx="59.11" ry="18"/>
<text text-anchor="middle" x="941" y="-127.6" font-family="Times,serif" font-size="14.00">AuthService</text>
</g>
<!-- AuthService&#45;&gt;AuthModule -->
<g id="edge5" class="edge">
<title>AuthService&#45;&gt;AuthModule</title>
<path fill="none" stroke="black" d="M941,-150C941,-174.16 941,-213.8 941,-213.8 941,-213.8 422.01,-213.8 422.01,-213.8"/>
<polygon fill="black" stroke="black" points="422.01,-210.3 412.01,-213.8 422.01,-217.3 422.01,-210.3"/>
</g>
<!-- JwtStrategy -->
<g id="node6" class="node">
<title>JwtStrategy</title>
<ellipse fill="#fdb462" stroke="black" cx="807" cy="-131.8" rx="56.76" ry="18"/>
<text text-anchor="middle" x="807" y="-127.6" font-family="Times,serif" font-size="14.00">JwtStrategy</text>
</g>
<!-- JwtStrategy&#45;&gt;AuthModule -->
<g id="edge6" class="edge">
<title>JwtStrategy&#45;&gt;AuthModule</title>
<path fill="none" stroke="black" d="M807,-149.83C807,-170.57 807,-201.8 807,-201.8 807,-201.8 421.7,-201.8 421.7,-201.8"/>
<polygon fill="black" stroke="black" points="421.7,-198.3 411.7,-201.8 421.7,-205.3 421.7,-198.3"/>
</g>
<!-- PrismaService -->
<g id="node8" class="node">
<title>PrismaService</title>
<ellipse fill="#fdb462" stroke="black" cx="519" cy="-131.8" rx="66.63" ry="18"/>
<text text-anchor="middle" x="519" y="-127.6" font-family="Times,serif" font-size="14.00">PrismaService</text>
</g>
<!-- PrismaService&#45;&gt;PrismaModule -->
<g id="edge8" class="edge">
<title>PrismaService&#45;&gt;PrismaModule</title>
<path fill="none" stroke="black" d="M451.89,-131.8C427.53,-131.8 405.88,-131.8 405.88,-131.8 405.88,-131.8 405.88,-94.91 405.88,-94.91"/>
<polygon fill="black" stroke="black" points="409.38,-94.91 405.88,-84.91 402.38,-94.91 409.38,-94.91"/>
</g>
<!-- UserService -->
<g id="node10" class="node">
<title>UserService</title>
<ellipse fill="#fdb462" stroke="black" cx="82" cy="-207.8" rx="58.44" ry="18"/>
<text text-anchor="middle" x="82" y="-203.6" font-family="Times,serif" font-size="14.00">UserService</text>
</g>
<!-- UserService&#45;&gt;UserModule -->
<g id="edge11" class="edge">
<title>UserService&#45;&gt;UserModule</title>
<path fill="none" stroke="black" d="M82,-189.79C82,-167.31 82,-131.8 82,-131.8 82,-131.8 303.73,-131.8 303.73,-131.8"/>
<polygon fill="black" stroke="black" points="303.73,-135.3 313.73,-131.8 303.73,-128.3 303.73,-135.3"/>
</g>
</g>
</svg>
