<?xml version="1.0" encoding="UTF-8" standalone="no"?>
<!DOCTYPE svg PUBLIC "-//W3C//DTD SVG 1.1//EN"
 "http://www.w3.org/Graphics/SVG/1.1/DTD/svg11.dtd">
<!-- Generated by graphviz version 3.0.0 (20220226.1711)
 -->
<!-- Title: dependencies Pages: 1 -->
<svg width="1680pt" height="326pt"
 viewBox="0.00 0.00 1680.00 325.80" xmlns="http://www.w3.org/2000/svg" xmlns:xlink="http://www.w3.org/1999/xlink">
<g id="graph0" class="graph" transform="scale(1 1) rotate(0) translate(4 321.8)">
<title>dependencies</title>
<polygon fill="white" stroke="transparent" points="-4,4 -4,-321.8 1676,-321.8 1676,4 -4,4"/>
<text text-anchor="middle" x="836" y="-8.2" font-family="sans-serif" font-size="14.00">dependencies</text>
<g id="clust1" class="cluster">
<title>cluster_AppModule</title>
<polygon fill="none" stroke="black" stroke-dasharray="1,5" points="568,-32.8 568,-309.8 1076,-309.8 1076,-32.8 568,-32.8"/>
</g>
<g id="clust3" class="cluster">
<title>cluster_AppModule_imports</title>
<polygon fill="none" stroke="black" points="588,-40.8 588,-244.8 1068,-244.8 1068,-40.8 588,-40.8"/>
</g>
<g id="clust7" class="cluster">
<title>cluster_AuthModule</title>
<polygon fill="none" stroke="black" stroke-dasharray="1,5" points="1382,-108.8 1382,-176.8 1664,-176.8 1664,-108.8 1382,-108.8"/>
</g>
<g id="clust12" class="cluster">
<title>cluster_AuthModule_providers</title>
<polygon fill="none" stroke="black" points="1390,-116.8 1390,-168.8 1656,-168.8 1656,-116.8 1390,-116.8"/>
</g>
<g id="clust13" class="cluster">
<title>cluster_CategoryModule</title>
<polygon fill="none" stroke="black" stroke-dasharray="1,5" points="8,-32.8 8,-100.8 190,-100.8 190,-32.8 8,-32.8"/>
</g>
<g id="clust18" class="cluster">
<title>cluster_CategoryModule_providers</title>
<polygon fill="none" stroke="black" points="16,-40.8 16,-92.8 182,-92.8 182,-40.8 16,-40.8"/>
</g>
<g id="clust19" class="cluster">
<title>cluster_PrismaModule</title>
<polygon fill="none" stroke="black" stroke-dasharray="1,5" points="1084,-108.8 1084,-176.8 1374,-176.8 1374,-108.8 1084,-108.8"/>
</g>
<g id="clust22" class="cluster">
<title>cluster_PrismaModule_exports</title>
<polygon fill="none" stroke="black" points="1250,-116.8 1250,-168.8 1366,-168.8 1366,-116.8 1250,-116.8"/>
</g>
<g id="clust24" class="cluster">
<title>cluster_PrismaModule_providers</title>
<polygon fill="none" stroke="black" points="1092,-116.8 1092,-168.8 1242,-168.8 1242,-116.8 1092,-116.8"/>
</g>
<g id="clust25" class="cluster">
<title>cluster_ProductModule</title>
<polygon fill="none" stroke="black" stroke-dasharray="1,5" points="198,-32.8 198,-100.8 370,-100.8 370,-32.8 198,-32.8"/>
</g>
<g id="clust30" class="cluster">
<title>cluster_ProductModule_providers</title>
<polygon fill="none" stroke="black" points="206,-40.8 206,-92.8 362,-92.8 362,-40.8 206,-40.8"/>
</g>
<g id="clust31" class="cluster">
<title>cluster_PurchaseModule</title>
<polygon fill="none" stroke="black" stroke-dasharray="1,5" points="378,-32.8 378,-100.8 560,-100.8 560,-32.8 378,-32.8"/>
</g>
<g id="clust36" class="cluster">
<title>cluster_PurchaseModule_providers</title>
<polygon fill="none" stroke="black" points="386,-40.8 386,-92.8 552,-92.8 552,-40.8 386,-40.8"/>
</g>
<g id="clust37" class="cluster">
<title>cluster_UserModule</title>
<polygon fill="none" stroke="black" stroke-dasharray="1,5" points="300,-184.8 300,-252.8 560,-252.8 560,-184.8 300,-184.8"/>
</g>
<g id="clust40" class="cluster">
<title>cluster_UserModule_exports</title>
<polygon fill="none" stroke="black" points="448,-192.8 448,-244.8 552,-244.8 552,-192.8 448,-192.8"/>
</g>
<g id="clust42" class="cluster">
<title>cluster_UserModule_providers</title>
<polygon fill="none" stroke="black" points="308,-192.8 308,-244.8 440,-244.8 440,-192.8 308,-192.8"/>
</g>
<!-- AuthModule -->
<g id="node1" class="node">
<title>AuthModule</title>
<polygon fill="#8dd3c7" stroke="black" points="1059.55,-236.8 1056.55,-240.8 1035.55,-240.8 1032.55,-236.8 972.45,-236.8 972.45,-200.8 1059.55,-200.8 1059.55,-236.8"/>
<text text-anchor="middle" x="1016" y="-214.6" font-family="Times,serif" font-size="14.00">AuthModule</text>
</g>
<!-- AppModule -->
<g id="node7" class="node">
<title>AppModule</title>
<polygon fill="#8dd3c7" stroke="black" points="895.66,-301.8 892.66,-305.8 871.66,-305.8 868.66,-301.8 812.34,-301.8 812.34,-265.8 895.66,-265.8 895.66,-301.8"/>
<text text-anchor="middle" x="854" y="-279.6" font-family="Times,serif" font-size="14.00">AppModule</text>
</g>
<!-- AuthModule&#45;&gt;AppModule -->
<g id="edge1" class="edge">
<title>AuthModule&#45;&gt;AppModule</title>
<path fill="none" stroke="black" d="M972.34,-224.8C932.31,-224.8 879.21,-224.8 879.21,-224.8 879.21,-224.8 879.21,-255.78 879.21,-255.78"/>
<polygon fill="black" stroke="black" points="875.71,-255.78 879.21,-265.78 882.71,-255.78 875.71,-255.78"/>
</g>
<!-- CategoryModule -->
<g id="node2" class="node">
<title>CategoryModule</title>
<polygon fill="#8dd3c7" stroke="black" points="706.37,-160.8 703.37,-164.8 682.37,-164.8 679.37,-160.8 595.63,-160.8 595.63,-124.8 706.37,-124.8 706.37,-160.8"/>
<text text-anchor="middle" x="651" y="-138.6" font-family="Times,serif" font-size="14.00">CategoryModule</text>
</g>
<!-- CategoryModule&#45;&gt;AppModule -->
<g id="edge2" class="edge">
<title>CategoryModule&#45;&gt;AppModule</title>
<path fill="none" stroke="black" d="M651,-160.94C651,-199.03 651,-283.8 651,-283.8 651,-283.8 801.94,-283.8 801.94,-283.8"/>
<polygon fill="black" stroke="black" points="801.94,-287.3 811.94,-283.8 801.94,-280.3 801.94,-287.3"/>
</g>
<!-- PrismaModule -->
<g id="node3" class="node">
<title>PrismaModule</title>
<polygon fill="#8dd3c7" stroke="black" points="950.44,-84.8 947.44,-88.8 926.44,-88.8 923.44,-84.8 851.56,-84.8 851.56,-48.8 950.44,-48.8 950.44,-84.8"/>
<text text-anchor="middle" x="901" y="-62.6" font-family="Times,serif" font-size="14.00">PrismaModule</text>
</g>
<!-- PrismaModule&#45;&gt;CategoryModule -->
<g id="edge10" class="edge">
<title>PrismaModule&#45;&gt;CategoryModule</title>
<path fill="none" stroke="black" d="M851.61,-63.8C778.75,-63.8 651,-63.8 651,-63.8 651,-63.8 651,-114.48 651,-114.48"/>
<polygon fill="black" stroke="black" points="647.5,-114.48 651,-124.48 654.5,-114.48 647.5,-114.48"/>
</g>
<!-- ProductModule -->
<g id="node4" class="node">
<title>ProductModule</title>
<polygon fill="#8dd3c7" stroke="black" points="827.6,-160.8 824.6,-164.8 803.6,-164.8 800.6,-160.8 724.4,-160.8 724.4,-124.8 827.6,-124.8 827.6,-160.8"/>
<text text-anchor="middle" x="776" y="-138.6" font-family="Times,serif" font-size="14.00">ProductModule</text>
</g>
<!-- PrismaModule&#45;&gt;ProductModule -->
<g id="edge14" class="edge">
<title>PrismaModule&#45;&gt;ProductModule</title>
<path fill="none" stroke="black" d="M851.51,-70.8C823.17,-70.8 793.18,-70.8 793.18,-70.8 793.18,-70.8 793.18,-114.63 793.18,-114.63"/>
<polygon fill="black" stroke="black" points="789.68,-114.63 793.18,-124.63 796.68,-114.63 789.68,-114.63"/>
</g>
<!-- PurchaseModule -->
<g id="node5" class="node">
<title>PurchaseModule</title>
<polygon fill="#8dd3c7" stroke="black" points="956.09,-160.8 953.09,-164.8 932.09,-164.8 929.09,-160.8 845.91,-160.8 845.91,-124.8 956.09,-124.8 956.09,-160.8"/>
<text text-anchor="middle" x="901" y="-138.6" font-family="Times,serif" font-size="14.00">PurchaseModule</text>
</g>
<!-- PrismaModule&#45;&gt;PurchaseModule -->
<g id="edge16" class="edge">
<title>PrismaModule&#45;&gt;PurchaseModule</title>
<path fill="none" stroke="black" d="M901,-84.81C901,-84.81 901,-114.65 901,-114.65"/>
<polygon fill="black" stroke="black" points="897.5,-114.65 901,-124.65 904.5,-114.65 897.5,-114.65"/>
</g>
<!-- UserModule -->
<g id="node6" class="node">
<title>UserModule</title>
<polygon fill="#8dd3c7" stroke="black" points="1059.99,-160.8 1056.99,-164.8 1035.99,-164.8 1032.99,-160.8 974.01,-160.8 974.01,-124.8 1059.99,-124.8 1059.99,-160.8"/>
<text text-anchor="middle" x="1017" y="-138.6" font-family="Times,serif" font-size="14.00">UserModule</text>
</g>
<!-- PrismaModule&#45;&gt;UserModule -->
<g id="edge18" class="edge">
<title>PrismaModule&#45;&gt;UserModule</title>
<path fill="none" stroke="black" d="M950.53,-75.8C982.06,-75.8 1017,-75.8 1017,-75.8 1017,-75.8 1017,-114.49 1017,-114.49"/>
<polygon fill="black" stroke="black" points="1013.5,-114.49 1017,-124.49 1020.5,-114.49 1013.5,-114.49"/>
</g>
<!-- PrismaModule&#45;&gt;AppModule -->
<g id="edge3" class="edge">
<title>PrismaModule&#45;&gt;AppModule</title>
<path fill="none" stroke="black" d="M851.62,-77.8C844.66,-77.8 839.82,-77.8 839.82,-77.8 839.82,-77.8 839.82,-255.52 839.82,-255.52"/>
<polygon fill="black" stroke="black" points="836.32,-255.52 839.82,-265.52 843.32,-255.52 836.32,-255.52"/>
</g>
<!-- PrismaService  -->
<g id="node11" class="node">
<title>PrismaService </title>
<polygon fill="#fb8072" stroke="black" points="1358.37,-160.8 1257.63,-160.8 1257.63,-124.8 1358.37,-124.8 1358.37,-160.8"/>
<text text-anchor="middle" x="1308" y="-138.6" font-family="Times,serif" font-size="14.00">PrismaService </text>
</g>
<!-- PrismaModule&#45;&gt;PrismaService  -->
<g id="edge12" class="edge">
<title>PrismaModule&#45;&gt;PrismaService </title>
<path fill="none" stroke="black" stroke-dasharray="5,2" d="M950.5,-57.8C1058.97,-57.8 1308,-57.8 1308,-57.8 1308,-57.8 1308,-114.77 1308,-114.77"/>
<polygon fill="black" stroke="black" points="1304.5,-114.77 1308,-124.77 1311.5,-114.77 1304.5,-114.77"/>
</g>
<!-- ProductModule&#45;&gt;AppModule -->
<g id="edge4" class="edge">
<title>ProductModule&#45;&gt;AppModule</title>
<path fill="none" stroke="black" d="M819.86,-160.94C819.86,-160.94 819.86,-255.73 819.86,-255.73"/>
<polygon fill="black" stroke="black" points="816.36,-255.72 819.86,-265.73 823.36,-255.73 816.36,-255.72"/>
</g>
<!-- PurchaseModule&#45;&gt;AppModule -->
<g id="edge5" class="edge">
<title>PurchaseModule&#45;&gt;AppModule</title>
<path fill="none" stroke="black" d="M862.58,-160.94C862.58,-160.94 862.58,-255.73 862.58,-255.73"/>
<polygon fill="black" stroke="black" points="859.08,-255.72 862.58,-265.73 866.08,-255.73 859.08,-255.72"/>
</g>
<!-- UserModule&#45;&gt;AuthModule -->
<g id="edge7" class="edge">
<title>UserModule&#45;&gt;AuthModule</title>
<path fill="none" stroke="black" d="M1031.19,-160.81C1031.19,-160.81 1031.19,-190.65 1031.19,-190.65"/>
<polygon fill="black" stroke="black" points="1027.69,-190.65 1031.19,-200.65 1034.69,-190.65 1027.69,-190.65"/>
</g>
<!-- UserModule&#45;&gt;AppModule -->
<g id="edge6" class="edge">
<title>UserModule&#45;&gt;AppModule</title>
<path fill="none" stroke="black" d="M973.81,-148.8C969.59,-148.8 966.83,-148.8 966.83,-148.8 966.83,-148.8 966.83,-283.8 966.83,-283.8 966.83,-283.8 905.69,-283.8 905.69,-283.8"/>
<polygon fill="black" stroke="black" points="905.69,-280.3 895.69,-283.8 905.69,-287.3 905.69,-280.3"/>
</g>
<!-- UserService  -->
<g id="node15" class="node">
<title>UserService </title>
<polygon fill="#fb8072" stroke="black" points="543.91,-236.8 456.09,-236.8 456.09,-200.8 543.91,-200.8 543.91,-236.8"/>
<text text-anchor="middle" x="500" y="-214.6" font-family="Times,serif" font-size="14.00">UserService </text>
</g>
<!-- UserModule&#45;&gt;UserService  -->
<g id="edge19" class="edge">
<title>UserModule&#45;&gt;UserService </title>
<path fill="none" stroke="black" stroke-dasharray="5,2" d="M973.77,-136.8C966.6,-136.8 961.44,-136.8 961.44,-136.8 961.44,-136.8 961.44,-212.8 961.44,-212.8 961.44,-212.8 554.24,-212.8 554.24,-212.8"/>
<polygon fill="black" stroke="black" points="554.24,-209.3 544.24,-212.8 554.24,-216.3 554.24,-209.3"/>
</g>
<!-- AuthService -->
<g id="node8" class="node">
<title>AuthService</title>
<ellipse fill="#fdb462" stroke="black" cx="1589" cy="-142.8" rx="59.11" ry="18"/>
<text text-anchor="middle" x="1589" y="-138.6" font-family="Times,serif" font-size="14.00">AuthService</text>
</g>
<!-- AuthService&#45;&gt;AuthModule -->
<g id="edge8" class="edge">
<title>AuthService&#45;&gt;AuthModule</title>
<path fill="none" stroke="black" d="M1589,-161C1589,-185.16 1589,-224.8 1589,-224.8 1589,-224.8 1070.01,-224.8 1070.01,-224.8"/>
<polygon fill="black" stroke="black" points="1070.01,-221.3 1060.01,-224.8 1070.01,-228.3 1070.01,-221.3"/>
</g>
<!-- JwtStrategy -->
<g id="node9" class="node">
<title>JwtStrategy</title>
<ellipse fill="#fdb462" stroke="black" cx="1455" cy="-142.8" rx="56.77" ry="18"/>
<text text-anchor="middle" x="1455" y="-138.6" font-family="Times,serif" font-size="14.00">JwtStrategy</text>
</g>
<!-- JwtStrategy&#45;&gt;AuthModule -->
<g id="edge9" class="edge">
<title>JwtStrategy&#45;&gt;AuthModule</title>
<path fill="none" stroke="black" d="M1455,-160.83C1455,-181.57 1455,-212.8 1455,-212.8 1455,-212.8 1069.7,-212.8 1069.7,-212.8"/>
<polygon fill="black" stroke="black" points="1069.7,-209.3 1059.7,-212.8 1069.7,-216.3 1069.7,-209.3"/>
</g>
<!-- CategoryService -->
<g id="node10" class="node">
<title>CategoryService</title>
<ellipse fill="#fdb462" stroke="black" cx="99" cy="-66.8" rx="75.28" ry="18"/>
<text text-anchor="middle" x="99" y="-62.6" font-family="Times,serif" font-size="14.00">CategoryService</text>
</g>
<!-- CategoryService&#45;&gt;CategoryModule -->
<g id="edge11" class="edge">
<title>CategoryService&#45;&gt;CategoryModule</title>
<path fill="none" stroke="black" d="M99,-84.81C99,-107.29 99,-142.8 99,-142.8 99,-142.8 585.54,-142.8 585.54,-142.8"/>
<polygon fill="black" stroke="black" points="585.54,-146.3 595.54,-142.8 585.54,-139.3 585.54,-146.3"/>
</g>
<!-- PrismaService -->
<g id="node12" class="node">
<title>PrismaService</title>
<ellipse fill="#fdb462" stroke="black" cx="1167" cy="-142.8" rx="66.64" ry="18"/>
<text text-anchor="middle" x="1167" y="-138.6" font-family="Times,serif" font-size="14.00">PrismaService</text>
</g>
<!-- PrismaService&#45;&gt;PrismaModule -->
<g id="edge13" class="edge">
<title>PrismaService&#45;&gt;PrismaModule</title>
<path fill="none" stroke="black" d="M1167,-124.79C1167,-102.31 1167,-66.8 1167,-66.8 1167,-66.8 960.41,-66.8 960.41,-66.8"/>
<polygon fill="black" stroke="black" points="960.41,-63.3 950.41,-66.8 960.41,-70.3 960.41,-63.3"/>
</g>
<!-- ProductService -->
<g id="node13" class="node">
<title>ProductService</title>
<ellipse fill="#fdb462" stroke="black" cx="284" cy="-66.8" rx="70.07" ry="18"/>
<text text-anchor="middle" x="284" y="-62.6" font-family="Times,serif" font-size="14.00">ProductService</text>
</g>
<!-- ProductService&#45;&gt;ProductModule -->
<g id="edge15" class="edge">
<title>ProductService&#45;&gt;ProductModule</title>
<path fill="none" stroke="black" d="M334.9,-79.24C334.9,-90.33 334.9,-104.8 334.9,-104.8 334.9,-104.8 758.82,-104.8 758.82,-104.8 758.82,-104.8 758.82,-114.69 758.82,-114.69"/>
<polygon fill="black" stroke="black" points="755.32,-114.69 758.82,-124.69 762.32,-114.69 755.32,-114.69"/>
</g>
<!-- PurchaseService -->
<g id="node14" class="node">
<title>PurchaseService</title>
<ellipse fill="#fdb462" stroke="black" cx="469" cy="-66.8" rx="74.71" ry="18"/>
<text text-anchor="middle" x="469" y="-62.6" font-family="Times,serif" font-size="14.00">PurchaseService</text>
</g>
<!-- PurchaseService&#45;&gt;PurchaseModule -->
<g id="edge17" class="edge">
<title>PurchaseService&#45;&gt;PurchaseModule</title>
<path fill="none" stroke="black" d="M531.28,-56.8C635.44,-56.8 833.69,-56.8 833.69,-56.8 833.69,-56.8 833.69,-142.8 833.69,-142.8 833.69,-142.8 835.72,-142.8 835.72,-142.8"/>
<polygon fill="black" stroke="black" points="835.72,-146.3 845.72,-142.8 835.72,-139.3 835.72,-146.3"/>
</g>
<!-- UserService -->
<g id="node16" class="node">
<title>UserService</title>
<ellipse fill="#fdb462" stroke="black" cx="374" cy="-218.8" rx="58.46" ry="18"/>
<text text-anchor="middle" x="374" y="-214.6" font-family="Times,serif" font-size="14.00">UserService</text>
</g>
<!-- UserService&#45;&gt;UserModule -->
<g id="edge20" class="edge">
<title>UserService&#45;&gt;UserModule</title>
<path fill="none" stroke="black" d="M413.19,-205.08C413.19,-194.2 413.19,-180.8 413.19,-180.8 413.19,-180.8 1002.6,-180.8 1002.6,-180.8 1002.6,-180.8 1002.6,-170.91 1002.6,-170.91"/>
<polygon fill="black" stroke="black" points="1006.1,-170.91 1002.6,-160.91 999.1,-170.91 1006.1,-170.91"/>
</g>
</g>
</svg>
