<?xml version="1.0" encoding="UTF-8" standalone="no"?>
<!DOCTYPE svg PUBLIC "-//W3C//DTD SVG 1.1//EN"
 "http://www.w3.org/Graphics/SVG/1.1/DTD/svg11.dtd">
<!-- Generated by graphviz version 3.0.0 (20220226.1711)
 -->
<!-- Title: dependencies Pages: 1 -->
<svg width="470pt" height="174pt"
 viewBox="0.00 0.00 470.00 173.80" xmlns="http://www.w3.org/2000/svg" xmlns:xlink="http://www.w3.org/1999/xlink">
<g id="graph0" class="graph" transform="scale(1 1) rotate(0) translate(4 169.8)">
<title>dependencies</title>
<polygon fill="white" stroke="transparent" points="-4,4 -4,-169.8 466,-169.8 466,4 -4,4"/>
<text text-anchor="middle" x="231" y="-8.2" font-family="sans-serif" font-size="14.00">dependencies</text>
<g id="clust1" class="cluster">
<title>cluster_AuthModule</title>
<polygon fill="none" stroke="black" stroke-dasharray="1,5" points="8,-32.8 8,-157.8 454,-157.8 454,-32.8 8,-32.8"/>
</g>
<g id="clust6" class="cluster">
<title>cluster_AuthModule_providers</title>
<polygon fill="none" stroke="black" points="126,-40.8 126,-92.8 446,-92.8 446,-40.8 126,-40.8"/>
</g>
<g id="clust3" class="cluster">
<title>cluster_AuthModule_imports</title>
<polygon fill="none" stroke="black" points="16,-40.8 16,-92.8 118,-92.8 118,-40.8 16,-40.8"/>
</g>
<!-- UserModule -->
<g id="node1" class="node">
<title>UserModule</title>
<polygon fill="#8dd3c7" stroke="black" points="109.99,-84.8 106.99,-88.8 85.99,-88.8 82.99,-84.8 24.01,-84.8 24.01,-48.8 109.99,-48.8 109.99,-84.8"/>
<text text-anchor="middle" x="67" y="-62.6" font-family="Times,serif" font-size="14.00">UserModule</text>
</g>
<!-- AuthModule -->
<g id="node2" class="node">
<title>AuthModule</title>
<polygon fill="#8dd3c7" stroke="black" points="236.55,-149.8 233.55,-153.8 212.55,-153.8 209.55,-149.8 149.45,-149.8 149.45,-113.8 236.55,-113.8 236.55,-149.8"/>
<text text-anchor="middle" x="193" y="-127.6" font-family="Times,serif" font-size="14.00">AuthModule</text>
</g>
<!-- UserModule&#45;&gt;AuthModule -->
<g id="edge1" class="edge">
<title>UserModule&#45;&gt;AuthModule</title>
<path fill="none" stroke="black" d="M67,-84.91C67,-104.14 67,-131.8 67,-131.8 67,-131.8 139.28,-131.8 139.28,-131.8"/>
<polygon fill="black" stroke="black" points="139.28,-135.3 149.28,-131.8 139.28,-128.3 139.28,-135.3"/>
</g>
<!-- AccessJwtStrategy -->
<g id="node3" class="node">
<title>AccessJwtStrategy</title>
<ellipse fill="#fdb462" stroke="black" cx="354" cy="-66.8" rx="83.96" ry="18"/>
<text text-anchor="middle" x="354" y="-62.6" font-family="Times,serif" font-size="14.00">AccessJwtStrategy</text>
</g>
<!-- AccessJwtStrategy&#45;&gt;AuthModule -->
<g id="edge2" class="edge">
<title>AccessJwtStrategy&#45;&gt;AuthModule</title>
<path fill="none" stroke="black" d="M354,-84.91C354,-104.14 354,-131.8 354,-131.8 354,-131.8 246.57,-131.8 246.57,-131.8"/>
<polygon fill="black" stroke="black" points="246.57,-128.3 236.57,-131.8 246.57,-135.3 246.57,-128.3"/>
</g>
<!-- AuthService -->
<g id="node4" class="node">
<title>AuthService</title>
<ellipse fill="#fdb462" stroke="black" cx="193" cy="-66.8" rx="59.11" ry="18"/>
<text text-anchor="middle" x="193" y="-62.6" font-family="Times,serif" font-size="14.00">AuthService</text>
</g>
<!-- AuthService&#45;&gt;AuthModule -->
<g id="edge3" class="edge">
<title>AuthService&#45;&gt;AuthModule</title>
<path fill="none" stroke="black" d="M193,-84.91C193,-84.91 193,-103.79 193,-103.79"/>
<polygon fill="black" stroke="black" points="189.5,-103.79 193,-113.79 196.5,-103.79 189.5,-103.79"/>
</g>
</g>
</svg>
