<?xml version="1.0" encoding="UTF-8" standalone="no"?>
<!DOCTYPE svg PUBLIC "-//W3C//DTD SVG 1.1//EN"
 "http://www.w3.org/Graphics/SVG/1.1/DTD/svg11.dtd">
<!-- Generated by graphviz version 3.0.0 (20220226.1711)
 -->
<!-- Title: dependencies Pages: 1 -->
<svg width="586pt" height="174pt"
 viewBox="0.00 0.00 586.00 173.80" xmlns="http://www.w3.org/2000/svg" xmlns:xlink="http://www.w3.org/1999/xlink">
<g id="graph0" class="graph" transform="scale(1 1) rotate(0) translate(4 169.8)">
<title>dependencies</title>
<polygon fill="white" stroke="transparent" points="-4,4 -4,-169.8 582,-169.8 582,4 -4,4"/>
<text text-anchor="middle" x="289" y="-8.2" font-family="sans-serif" font-size="14.00">dependencies</text>
<g id="clust1" class="cluster">
<title>cluster_AuthModule</title>
<polygon fill="none" stroke="black" stroke-dasharray="1,5" points="8,-32.8 8,-157.8 570,-157.8 570,-32.8 8,-32.8"/>
</g>
<g id="clust3" class="cluster">
<title>cluster_AuthModule_imports</title>
<polygon fill="none" stroke="black" points="344,-40.8 344,-92.8 562,-92.8 562,-40.8 344,-40.8"/>
</g>
<g id="clust6" class="cluster">
<title>cluster_AuthModule_providers</title>
<polygon fill="none" stroke="black" points="16,-40.8 16,-92.8 336,-92.8 336,-40.8 16,-40.8"/>
</g>
<!-- PrismaModule -->
<g id="node1" class="node">
<title>PrismaModule</title>
<polygon fill="#8dd3c7" stroke="black" points="554.44,-84.8 551.44,-88.8 530.44,-88.8 527.44,-84.8 455.56,-84.8 455.56,-48.8 554.44,-48.8 554.44,-84.8"/>
<text text-anchor="middle" x="505" y="-62.6" font-family="Times,serif" font-size="14.00">PrismaModule</text>
</g>
<!-- AuthModule -->
<g id="node3" class="node">
<title>AuthModule</title>
<polygon fill="#8dd3c7" stroke="black" points="362.55,-149.8 359.55,-153.8 338.55,-153.8 335.55,-149.8 275.45,-149.8 275.45,-113.8 362.55,-113.8 362.55,-149.8"/>
<text text-anchor="middle" x="319" y="-127.6" font-family="Times,serif" font-size="14.00">AuthModule</text>
</g>
<!-- PrismaModule&#45;&gt;AuthModule -->
<g id="edge1" class="edge">
<title>PrismaModule&#45;&gt;AuthModule</title>
<path fill="none" stroke="black" d="M505,-84.91C505,-104.14 505,-131.8 505,-131.8 505,-131.8 372.61,-131.8 372.61,-131.8"/>
<polygon fill="black" stroke="black" points="372.61,-128.3 362.61,-131.8 372.61,-135.3 372.61,-128.3"/>
</g>
<!-- UserModule -->
<g id="node2" class="node">
<title>UserModule</title>
<polygon fill="#8dd3c7" stroke="black" points="437.99,-84.8 434.99,-88.8 413.99,-88.8 410.99,-84.8 352.01,-84.8 352.01,-48.8 437.99,-48.8 437.99,-84.8"/>
<text text-anchor="middle" x="395" y="-62.6" font-family="Times,serif" font-size="14.00">UserModule</text>
</g>
<!-- UserModule&#45;&gt;AuthModule -->
<g id="edge2" class="edge">
<title>UserModule&#45;&gt;AuthModule</title>
<path fill="none" stroke="black" d="M357.39,-84.91C357.39,-84.91 357.39,-103.79 357.39,-103.79"/>
<polygon fill="black" stroke="black" points="353.89,-103.79 357.39,-113.79 360.89,-103.79 353.89,-103.79"/>
</g>
<!-- AccessJwtStrategy -->
<g id="node4" class="node">
<title>AccessJwtStrategy</title>
<ellipse fill="#fdb462" stroke="black" cx="244" cy="-66.8" rx="83.96" ry="18"/>
<text text-anchor="middle" x="244" y="-62.6" font-family="Times,serif" font-size="14.00">AccessJwtStrategy</text>
</g>
<!-- AccessJwtStrategy&#45;&gt;AuthModule -->
<g id="edge3" class="edge">
<title>AccessJwtStrategy&#45;&gt;AuthModule</title>
<path fill="none" stroke="black" d="M301.6,-79.95C301.6,-79.95 301.6,-103.49 301.6,-103.49"/>
<polygon fill="black" stroke="black" points="298.1,-103.49 301.6,-113.49 305.1,-103.49 298.1,-103.49"/>
</g>
<!-- AuthService -->
<g id="node5" class="node">
<title>AuthService</title>
<ellipse fill="#fdb462" stroke="black" cx="83" cy="-66.8" rx="59.11" ry="18"/>
<text text-anchor="middle" x="83" y="-62.6" font-family="Times,serif" font-size="14.00">AuthService</text>
</g>
<!-- AuthService&#45;&gt;AuthModule -->
<g id="edge4" class="edge">
<title>AuthService&#45;&gt;AuthModule</title>
<path fill="none" stroke="black" d="M83,-84.91C83,-104.14 83,-131.8 83,-131.8 83,-131.8 265.44,-131.8 265.44,-131.8"/>
<polygon fill="black" stroke="black" points="265.44,-135.3 275.44,-131.8 265.44,-128.3 265.44,-135.3"/>
</g>
</g>
</svg>
