<?xml version="1.0" encoding="UTF-8" standalone="no"?>
<!DOCTYPE svg PUBLIC "-//W3C//DTD SVG 1.1//EN"
 "http://www.w3.org/Graphics/SVG/1.1/DTD/svg11.dtd">
<!-- Generated by graphviz version 2.47.3 (20210619.1520)
 -->
<!-- Title: dependencies Pages: 1 -->
<svg width="1362pt" height="326pt"
 viewBox="0.00 0.00 1362.00 325.80" xmlns="http://www.w3.org/2000/svg" xmlns:xlink="http://www.w3.org/1999/xlink">
<g id="graph0" class="graph" transform="scale(1 1) rotate(0) translate(4 321.8)">
<title>dependencies</title>
<polygon fill="white" stroke="transparent" points="-4,4 -4,-321.8 1358,-321.8 1358,4 -4,4"/>
<text text-anchor="middle" x="677" y="-8.2" font-family="sans-serif" font-size="14.00">dependencies</text>
<g id="clust1" class="cluster">
<title>cluster_AppModule</title>
<polygon fill="none" stroke="black" stroke-dasharray="1,5" points="378,-32.8 378,-309.8 758,-309.8 758,-32.8 378,-32.8"/>
</g>
<g id="clust3" class="cluster">
<title>cluster_AppModule_imports</title>
<polygon fill="none" stroke="black" points="398,-40.8 398,-244.8 750,-244.8 750,-40.8 398,-40.8"/>
</g>
<g id="clust7" class="cluster">
<title>cluster_AuthModule</title>
<polygon fill="none" stroke="black" stroke-dasharray="1,5" points="1064,-108.8 1064,-176.8 1346,-176.8 1346,-108.8 1064,-108.8"/>
</g>
<g id="clust12" class="cluster">
<title>cluster_AuthModule_providers</title>
<polygon fill="none" stroke="black" points="1072,-116.8 1072,-168.8 1338,-168.8 1338,-116.8 1072,-116.8"/>
</g>
<g id="clust13" class="cluster">
<title>cluster_CategoryModule</title>
<polygon fill="none" stroke="black" stroke-dasharray="1,5" points="8,-32.8 8,-100.8 190,-100.8 190,-32.8 8,-32.8"/>
</g>
<g id="clust18" class="cluster">
<title>cluster_CategoryModule_providers</title>
<polygon fill="none" stroke="black" points="16,-40.8 16,-92.8 182,-92.8 182,-40.8 16,-40.8"/>
</g>
<g id="clust19" class="cluster">
<title>cluster_PrismaModule</title>
<polygon fill="none" stroke="black" stroke-dasharray="1,5" points="766,-108.8 766,-176.8 1056,-176.8 1056,-108.8 766,-108.8"/>
</g>
<g id="clust22" class="cluster">
<title>cluster_PrismaModule_exports</title>
<polygon fill="none" stroke="black" points="932,-116.8 932,-168.8 1048,-168.8 1048,-116.8 932,-116.8"/>
</g>
<g id="clust24" class="cluster">
<title>cluster_PrismaModule_providers</title>
<polygon fill="none" stroke="black" points="774,-116.8 774,-168.8 924,-168.8 924,-116.8 774,-116.8"/>
</g>
<g id="clust25" class="cluster">
<title>cluster_ProductModule</title>
<polygon fill="none" stroke="black" stroke-dasharray="1,5" points="198,-32.8 198,-100.8 370,-100.8 370,-32.8 198,-32.8"/>
</g>
<g id="clust30" class="cluster">
<title>cluster_ProductModule_providers</title>
<polygon fill="none" stroke="black" points="206,-40.8 206,-92.8 362,-92.8 362,-40.8 206,-40.8"/>
</g>
<g id="clust31" class="cluster">
<title>cluster_UserModule</title>
<polygon fill="none" stroke="black" stroke-dasharray="1,5" points="110,-184.8 110,-252.8 370,-252.8 370,-184.8 110,-184.8"/>
</g>
<g id="clust34" class="cluster">
<title>cluster_UserModule_exports</title>
<polygon fill="none" stroke="black" points="258,-192.8 258,-244.8 362,-244.8 362,-192.8 258,-192.8"/>
</g>
<g id="clust36" class="cluster">
<title>cluster_UserModule_providers</title>
<polygon fill="none" stroke="black" points="118,-192.8 118,-244.8 250,-244.8 250,-192.8 118,-192.8"/>
</g>
<!-- AuthModule -->
<g id="node1" class="node">
<title>AuthModule</title>
<polygon fill="#8dd3c7" stroke="black" points="741.55,-236.8 738.55,-240.8 717.55,-240.8 714.55,-236.8 654.45,-236.8 654.45,-200.8 741.55,-200.8 741.55,-236.8"/>
<text text-anchor="middle" x="698" y="-214.6" font-family="Times,serif" font-size="14.00">AuthModule</text>
</g>
<!-- AppModule -->
<g id="node6" class="node">
<title>AppModule</title>
<polygon fill="#8dd3c7" stroke="black" points="627.66,-301.8 624.66,-305.8 603.66,-305.8 600.66,-301.8 544.34,-301.8 544.34,-265.8 627.66,-265.8 627.66,-301.8"/>
<text text-anchor="middle" x="586" y="-279.6" font-family="Times,serif" font-size="14.00">AppModule</text>
</g>
<!-- AuthModule&#45;&gt;AppModule -->
<g id="edge1" class="edge">
<title>AuthModule&#45;&gt;AppModule</title>
<path fill="none" stroke="black" d="M654.42,-224.8C628.23,-224.8 599.94,-224.8 599.94,-224.8 599.94,-224.8 599.94,-255.78 599.94,-255.78"/>
<polygon fill="black" stroke="black" points="596.44,-255.78 599.94,-265.78 603.44,-255.78 596.44,-255.78"/>
</g>
<!-- CategoryModule -->
<g id="node2" class="node">
<title>CategoryModule</title>
<polygon fill="#8dd3c7" stroke="black" points="516.37,-160.8 513.37,-164.8 492.37,-164.8 489.37,-160.8 405.63,-160.8 405.63,-124.8 516.37,-124.8 516.37,-160.8"/>
<text text-anchor="middle" x="461" y="-138.6" font-family="Times,serif" font-size="14.00">CategoryModule</text>
</g>
<!-- CategoryModule&#45;&gt;AppModule -->
<g id="edge2" class="edge">
<title>CategoryModule&#45;&gt;AppModule</title>
<path fill="none" stroke="black" d="M461,-160.94C461,-199.03 461,-283.8 461,-283.8 461,-283.8 534.03,-283.8 534.03,-283.8"/>
<polygon fill="black" stroke="black" points="534.03,-287.3 544.03,-283.8 534.03,-280.3 534.03,-287.3"/>
</g>
<!-- PrismaModule -->
<g id="node3" class="node">
<title>PrismaModule</title>
<polygon fill="#8dd3c7" stroke="black" points="688.43,-84.8 685.43,-88.8 664.43,-88.8 661.43,-84.8 589.57,-84.8 589.57,-48.8 688.43,-48.8 688.43,-84.8"/>
<text text-anchor="middle" x="639" y="-62.6" font-family="Times,serif" font-size="14.00">PrismaModule</text>
</g>
<!-- PrismaModule&#45;&gt;CategoryModule -->
<g id="edge9" class="edge">
<title>PrismaModule&#45;&gt;CategoryModule</title>
<path fill="none" stroke="black" d="M589.42,-72.8C536.75,-72.8 461,-72.8 461,-72.8 461,-72.8 461,-114.77 461,-114.77"/>
<polygon fill="black" stroke="black" points="457.5,-114.77 461,-124.77 464.5,-114.77 457.5,-114.77"/>
</g>
<!-- ProductModule -->
<g id="node4" class="node">
<title>ProductModule</title>
<polygon fill="#8dd3c7" stroke="black" points="637.6,-160.8 634.6,-164.8 613.6,-164.8 610.6,-160.8 534.4,-160.8 534.4,-124.8 637.6,-124.8 637.6,-160.8"/>
<text text-anchor="middle" x="586" y="-138.6" font-family="Times,serif" font-size="14.00">ProductModule</text>
</g>
<!-- PrismaModule&#45;&gt;ProductModule -->
<g id="edge13" class="edge">
<title>PrismaModule&#45;&gt;ProductModule</title>
<path fill="none" stroke="black" d="M613.67,-84.81C613.67,-84.81 613.67,-114.65 613.67,-114.65"/>
<polygon fill="black" stroke="black" points="610.17,-114.65 613.67,-124.65 617.17,-114.65 610.17,-114.65"/>
</g>
<!-- UserModule -->
<g id="node5" class="node">
<title>UserModule</title>
<polygon fill="#8dd3c7" stroke="black" points="741.98,-160.8 738.98,-164.8 717.98,-164.8 714.98,-160.8 656.02,-160.8 656.02,-124.8 741.98,-124.8 741.98,-160.8"/>
<text text-anchor="middle" x="699" y="-138.6" font-family="Times,serif" font-size="14.00">UserModule</text>
</g>
<!-- PrismaModule&#45;&gt;UserModule -->
<g id="edge15" class="edge">
<title>PrismaModule&#45;&gt;UserModule</title>
<path fill="none" stroke="black" d="M672.11,-84.81C672.11,-84.81 672.11,-114.65 672.11,-114.65"/>
<polygon fill="black" stroke="black" points="668.61,-114.65 672.11,-124.65 675.61,-114.65 668.61,-114.65"/>
</g>
<!-- PrismaModule&#45;&gt;AppModule -->
<g id="edge3" class="edge">
<title>PrismaModule&#45;&gt;AppModule</title>
<path fill="none" stroke="black" d="M645.89,-85.16C645.89,-136.49 645.89,-277.8 645.89,-277.8 645.89,-277.8 637.92,-277.8 637.92,-277.8"/>
<polygon fill="black" stroke="black" points="637.92,-274.3 627.92,-277.8 637.92,-281.3 637.92,-274.3"/>
</g>
<!-- PrismaService  -->
<g id="node10" class="node">
<title>PrismaService </title>
<polygon fill="#fb8072" stroke="black" points="1040.36,-160.8 939.64,-160.8 939.64,-124.8 1040.36,-124.8 1040.36,-160.8"/>
<text text-anchor="middle" x="990" y="-138.6" font-family="Times,serif" font-size="14.00">PrismaService </text>
</g>
<!-- PrismaModule&#45;&gt;PrismaService  -->
<g id="edge11" class="edge">
<title>PrismaModule&#45;&gt;PrismaService </title>
<path fill="none" stroke="black" stroke-dasharray="5,2" d="M688.55,-60.8C785.3,-60.8 990,-60.8 990,-60.8 990,-60.8 990,-114.6 990,-114.6"/>
<polygon fill="black" stroke="black" points="986.5,-114.6 990,-124.6 993.5,-114.6 986.5,-114.6"/>
</g>
<!-- ProductModule&#45;&gt;AppModule -->
<g id="edge4" class="edge">
<title>ProductModule&#45;&gt;AppModule</title>
<path fill="none" stroke="black" d="M572.06,-160.94C572.06,-160.94 572.06,-255.73 572.06,-255.73"/>
<polygon fill="black" stroke="black" points="568.56,-255.72 572.06,-265.73 575.56,-255.73 568.56,-255.72"/>
</g>
<!-- UserModule&#45;&gt;AuthModule -->
<g id="edge6" class="edge">
<title>UserModule&#45;&gt;AuthModule</title>
<path fill="none" stroke="black" d="M713.19,-160.81C713.19,-160.81 713.19,-190.65 713.19,-190.65"/>
<polygon fill="black" stroke="black" points="709.69,-190.65 713.19,-200.65 716.69,-190.65 709.69,-190.65"/>
</g>
<!-- UserModule&#45;&gt;AppModule -->
<g id="edge5" class="edge">
<title>UserModule&#45;&gt;AppModule</title>
<path fill="none" stroke="black" d="M655.67,-148.8C652.23,-148.8 650.06,-148.8 650.06,-148.8 650.06,-148.8 650.06,-289.8 650.06,-289.8 650.06,-289.8 638.01,-289.8 638.01,-289.8"/>
<polygon fill="black" stroke="black" points="638.01,-286.3 628.01,-289.8 638.01,-293.3 638.01,-286.3"/>
</g>
<!-- UserService  -->
<g id="node13" class="node">
<title>UserService </title>
<polygon fill="#fb8072" stroke="black" points="353.9,-236.8 266.1,-236.8 266.1,-200.8 353.9,-200.8 353.9,-236.8"/>
<text text-anchor="middle" x="310" y="-214.6" font-family="Times,serif" font-size="14.00">UserService </text>
</g>
<!-- UserModule&#45;&gt;UserService  -->
<g id="edge16" class="edge">
<title>UserModule&#45;&gt;UserService </title>
<path fill="none" stroke="black" stroke-dasharray="5,2" d="M655.88,-136.8C647.74,-136.8 641.72,-136.8 641.72,-136.8 641.72,-136.8 641.72,-212.8 641.72,-212.8 641.72,-212.8 364.05,-212.8 364.05,-212.8"/>
<polygon fill="black" stroke="black" points="364.05,-209.3 354.05,-212.8 364.05,-216.3 364.05,-209.3"/>
</g>
<!-- AuthService -->
<g id="node7" class="node">
<title>AuthService</title>
<ellipse fill="#fdb462" stroke="black" cx="1271" cy="-142.8" rx="59.11" ry="18"/>
<text text-anchor="middle" x="1271" y="-138.6" font-family="Times,serif" font-size="14.00">AuthService</text>
</g>
<!-- AuthService&#45;&gt;AuthModule -->
<g id="edge7" class="edge">
<title>AuthService&#45;&gt;AuthModule</title>
<path fill="none" stroke="black" d="M1271,-161C1271,-185.16 1271,-224.8 1271,-224.8 1271,-224.8 752.01,-224.8 752.01,-224.8"/>
<polygon fill="black" stroke="black" points="752.01,-221.3 742.01,-224.8 752.01,-228.3 752.01,-221.3"/>
</g>
<!-- JwtStrategy -->
<g id="node8" class="node">
<title>JwtStrategy</title>
<ellipse fill="#fdb462" stroke="black" cx="1137" cy="-142.8" rx="56.76" ry="18"/>
<text text-anchor="middle" x="1137" y="-138.6" font-family="Times,serif" font-size="14.00">JwtStrategy</text>
</g>
<!-- JwtStrategy&#45;&gt;AuthModule -->
<g id="edge8" class="edge">
<title>JwtStrategy&#45;&gt;AuthModule</title>
<path fill="none" stroke="black" d="M1137,-160.83C1137,-181.57 1137,-212.8 1137,-212.8 1137,-212.8 751.7,-212.8 751.7,-212.8"/>
<polygon fill="black" stroke="black" points="751.7,-209.3 741.7,-212.8 751.7,-216.3 751.7,-209.3"/>
</g>
<!-- CategoryService -->
<g id="node9" class="node">
<title>CategoryService</title>
<ellipse fill="#fdb462" stroke="black" cx="99" cy="-66.8" rx="75.28" ry="18"/>
<text text-anchor="middle" x="99" y="-62.6" font-family="Times,serif" font-size="14.00">CategoryService</text>
</g>
<!-- CategoryService&#45;&gt;CategoryModule -->
<g id="edge10" class="edge">
<title>CategoryService&#45;&gt;CategoryModule</title>
<path fill="none" stroke="black" d="M150.08,-80.04C150.08,-101.81 150.08,-142.8 150.08,-142.8 150.08,-142.8 395.41,-142.8 395.41,-142.8"/>
<polygon fill="black" stroke="black" points="395.41,-146.3 405.41,-142.8 395.41,-139.3 395.41,-146.3"/>
</g>
<!-- PrismaService -->
<g id="node11" class="node">
<title>PrismaService</title>
<ellipse fill="#fdb462" stroke="black" cx="849" cy="-142.8" rx="66.63" ry="18"/>
<text text-anchor="middle" x="849" y="-138.6" font-family="Times,serif" font-size="14.00">PrismaService</text>
</g>
<!-- PrismaService&#45;&gt;PrismaModule -->
<g id="edge12" class="edge">
<title>PrismaService&#45;&gt;PrismaModule</title>
<path fill="none" stroke="black" d="M849,-124.77C849,-104.03 849,-72.8 849,-72.8 849,-72.8 698.24,-72.8 698.24,-72.8"/>
<polygon fill="black" stroke="black" points="698.24,-69.3 688.24,-72.8 698.24,-76.3 698.24,-69.3"/>
</g>
<!-- ProductService -->
<g id="node12" class="node">
<title>ProductService</title>
<ellipse fill="#fdb462" stroke="black" cx="284" cy="-66.8" rx="70.06" ry="18"/>
<text text-anchor="middle" x="284" y="-62.6" font-family="Times,serif" font-size="14.00">ProductService</text>
</g>
<!-- ProductService&#45;&gt;ProductModule -->
<g id="edge14" class="edge">
<title>ProductService&#45;&gt;ProductModule</title>
<path fill="none" stroke="black" d="M350.26,-60.8C432.52,-60.8 562.12,-60.8 562.12,-60.8 562.12,-60.8 562.12,-114.6 562.12,-114.6"/>
<polygon fill="black" stroke="black" points="558.62,-114.6 562.12,-124.6 565.62,-114.6 558.62,-114.6"/>
</g>
<!-- UserService -->
<g id="node14" class="node">
<title>UserService</title>
<ellipse fill="#fdb462" stroke="black" cx="184" cy="-218.8" rx="58.44" ry="18"/>
<text text-anchor="middle" x="184" y="-214.6" font-family="Times,serif" font-size="14.00">UserService</text>
</g>
<!-- UserService&#45;&gt;UserModule -->
<g id="edge17" class="edge">
<title>UserService&#45;&gt;UserModule</title>
<path fill="none" stroke="black" d="M228.09,-206.78C228.09,-195.64 228.09,-180.8 228.09,-180.8 228.09,-180.8 684.6,-180.8 684.6,-180.8 684.6,-180.8 684.6,-170.91 684.6,-170.91"/>
<polygon fill="black" stroke="black" points="688.1,-170.91 684.6,-160.91 681.1,-170.91 688.1,-170.91"/>
</g>
</g>
</svg>
