<?xml version="1.0" encoding="UTF-8" standalone="no"?>
<!DOCTYPE svg PUBLIC "-//W3C//DTD SVG 1.1//EN"
 "http://www.w3.org/Graphics/SVG/1.1/DTD/svg11.dtd">
<!-- Generated by graphviz version 3.0.0 (20220226.1711)
 -->
<!-- Title: dependencies Pages: 1 -->
<svg width="743pt" height="174pt"
 viewBox="0.00 0.00 743.00 173.80" xmlns="http://www.w3.org/2000/svg" xmlns:xlink="http://www.w3.org/1999/xlink">
<g id="graph0" class="graph" transform="scale(1 1) rotate(0) translate(4 169.8)">
<title>dependencies</title>
<polygon fill="white" stroke="transparent" points="-4,4 -4,-169.8 739,-169.8 739,4 -4,4"/>
<text text-anchor="middle" x="367.5" y="-8.2" font-family="sans-serif" font-size="14.00">dependencies</text>
<g id="clust1" class="cluster">
<title>cluster_AppModule</title>
<polygon fill="none" stroke="black" stroke-dasharray="1,5" points="8,-32.8 8,-157.8 727,-157.8 727,-32.8 8,-32.8"/>
</g>
<g id="clust3" class="cluster">
<title>cluster_AppModule_imports</title>
<polygon fill="none" stroke="black" points="16,-40.8 16,-92.8 719,-92.8 719,-40.8 16,-40.8"/>
</g>
<!-- AuthModule -->
<g id="node1" class="node">
<title>AuthModule</title>
<polygon fill="#8dd3c7" stroke="black" points="710.55,-84.8 707.55,-88.8 686.55,-88.8 683.55,-84.8 623.45,-84.8 623.45,-48.8 710.55,-48.8 710.55,-84.8"/>
<text text-anchor="middle" x="667" y="-62.6" font-family="Times,serif" font-size="14.00">AuthModule</text>
</g>
<!-- AppModule -->
<g id="node7" class="node">
<title>AppModule</title>
<polygon fill="#8dd3c7" stroke="black" points="408.66,-149.8 405.66,-153.8 384.66,-153.8 381.66,-149.8 325.34,-149.8 325.34,-113.8 408.66,-113.8 408.66,-149.8"/>
<text text-anchor="middle" x="367" y="-127.6" font-family="Times,serif" font-size="14.00">AppModule</text>
</g>
<!-- AuthModule&#45;&gt;AppModule -->
<g id="edge1" class="edge">
<title>AuthModule&#45;&gt;AppModule</title>
<path fill="none" stroke="black" d="M667,-85.08C667,-106.12 667,-137.8 667,-137.8 667,-137.8 418.71,-137.8 418.71,-137.8"/>
<polygon fill="black" stroke="black" points="418.71,-134.3 408.71,-137.8 418.71,-141.3 418.71,-134.3"/>
</g>
<!-- CategoryModule -->
<g id="node2" class="node">
<title>CategoryModule</title>
<polygon fill="#8dd3c7" stroke="black" points="605.37,-84.8 602.37,-88.8 581.37,-88.8 578.37,-84.8 494.63,-84.8 494.63,-48.8 605.37,-48.8 605.37,-84.8"/>
<text text-anchor="middle" x="550" y="-62.6" font-family="Times,serif" font-size="14.00">CategoryModule</text>
</g>
<!-- CategoryModule&#45;&gt;AppModule -->
<g id="edge2" class="edge">
<title>CategoryModule&#45;&gt;AppModule</title>
<path fill="none" stroke="black" d="M550,-84.82C550,-102.17 550,-125.8 550,-125.8 550,-125.8 418.98,-125.8 418.98,-125.8"/>
<polygon fill="black" stroke="black" points="418.98,-122.3 408.98,-125.8 418.98,-129.3 418.98,-122.3"/>
</g>
<!-- PrismaModule -->
<g id="node3" class="node">
<title>PrismaModule</title>
<polygon fill="#8dd3c7" stroke="black" points="476.44,-84.8 473.44,-88.8 452.44,-88.8 449.44,-84.8 377.56,-84.8 377.56,-48.8 476.44,-48.8 476.44,-84.8"/>
<text text-anchor="middle" x="427" y="-62.6" font-family="Times,serif" font-size="14.00">PrismaModule</text>
</g>
<!-- PrismaModule&#45;&gt;AppModule -->
<g id="edge3" class="edge">
<title>PrismaModule&#45;&gt;AppModule</title>
<path fill="none" stroke="black" d="M393.31,-84.91C393.31,-84.91 393.31,-103.79 393.31,-103.79"/>
<polygon fill="black" stroke="black" points="389.81,-103.79 393.31,-113.79 396.81,-103.79 389.81,-103.79"/>
</g>
<!-- ProductModule -->
<g id="node4" class="node">
<title>ProductModule</title>
<polygon fill="#8dd3c7" stroke="black" points="359.6,-84.8 356.6,-88.8 335.6,-88.8 332.6,-84.8 256.4,-84.8 256.4,-48.8 359.6,-48.8 359.6,-84.8"/>
<text text-anchor="middle" x="308" y="-62.6" font-family="Times,serif" font-size="14.00">ProductModule</text>
</g>
<!-- ProductModule&#45;&gt;AppModule -->
<g id="edge4" class="edge">
<title>ProductModule&#45;&gt;AppModule</title>
<path fill="none" stroke="black" d="M342.36,-84.91C342.36,-84.91 342.36,-103.79 342.36,-103.79"/>
<polygon fill="black" stroke="black" points="338.86,-103.79 342.36,-113.79 345.86,-103.79 338.86,-103.79"/>
</g>
<!-- PurchaseModule -->
<g id="node5" class="node">
<title>PurchaseModule</title>
<polygon fill="#8dd3c7" stroke="black" points="238.09,-84.8 235.09,-88.8 214.09,-88.8 211.09,-84.8 127.91,-84.8 127.91,-48.8 238.09,-48.8 238.09,-84.8"/>
<text text-anchor="middle" x="183" y="-62.6" font-family="Times,serif" font-size="14.00">PurchaseModule</text>
</g>
<!-- PurchaseModule&#45;&gt;AppModule -->
<g id="edge5" class="edge">
<title>PurchaseModule&#45;&gt;AppModule</title>
<path fill="none" stroke="black" d="M183,-84.82C183,-102.17 183,-125.8 183,-125.8 183,-125.8 315.25,-125.8 315.25,-125.8"/>
<polygon fill="black" stroke="black" points="315.25,-129.3 325.25,-125.8 315.25,-122.3 315.25,-129.3"/>
</g>
<!-- UserModule -->
<g id="node6" class="node">
<title>UserModule</title>
<polygon fill="#8dd3c7" stroke="black" points="109.99,-84.8 106.99,-88.8 85.99,-88.8 82.99,-84.8 24.01,-84.8 24.01,-48.8 109.99,-48.8 109.99,-84.8"/>
<text text-anchor="middle" x="67" y="-62.6" font-family="Times,serif" font-size="14.00">UserModule</text>
</g>
<!-- UserModule&#45;&gt;AppModule -->
<g id="edge6" class="edge">
<title>UserModule&#45;&gt;AppModule</title>
<path fill="none" stroke="black" d="M67,-85.08C67,-106.12 67,-137.8 67,-137.8 67,-137.8 315.29,-137.8 315.29,-137.8"/>
<polygon fill="black" stroke="black" points="315.29,-141.3 325.29,-137.8 315.29,-134.3 315.29,-141.3"/>
</g>
</g>
</svg>
