<?xml version="1.0" encoding="UTF-8" standalone="no"?>
<!DOCTYPE svg PUBLIC "-//W3C//DTD SVG 1.1//EN"
 "http://www.w3.org/Graphics/SVG/1.1/DTD/svg11.dtd">
<!-- Generated by graphviz version 3.0.0 (20220226.1711)
 -->
<!-- Title: dependencies Pages: 1 -->
<svg width="318pt" height="174pt"
 viewBox="0.00 0.00 318.00 173.80" xmlns="http://www.w3.org/2000/svg" xmlns:xlink="http://www.w3.org/1999/xlink">
<g id="graph0" class="graph" transform="scale(1 1) rotate(0) translate(4 169.8)">
<title>dependencies</title>
<polygon fill="white" stroke="transparent" points="-4,4 -4,-169.8 314,-169.8 314,4 -4,4"/>
<text text-anchor="middle" x="155" y="-8.2" font-family="sans-serif" font-size="14.00">dependencies</text>
<g id="clust1" class="cluster">
<title>cluster_ProductModule</title>
<polygon fill="none" stroke="black" stroke-dasharray="1,5" points="8,-32.8 8,-157.8 302,-157.8 302,-32.8 8,-32.8"/>
</g>
<g id="clust6" class="cluster">
<title>cluster_ProductModule_providers</title>
<polygon fill="none" stroke="black" points="138,-40.8 138,-92.8 294,-92.8 294,-40.8 138,-40.8"/>
</g>
<g id="clust3" class="cluster">
<title>cluster_ProductModule_imports</title>
<polygon fill="none" stroke="black" points="16,-40.8 16,-92.8 130,-92.8 130,-40.8 16,-40.8"/>
</g>
<!-- PrismaModule -->
<g id="node1" class="node">
<title>PrismaModule</title>
<polygon fill="#8dd3c7" stroke="black" points="122.44,-84.8 119.44,-88.8 98.44,-88.8 95.44,-84.8 23.56,-84.8 23.56,-48.8 122.44,-48.8 122.44,-84.8"/>
<text text-anchor="middle" x="73" y="-62.6" font-family="Times,serif" font-size="14.00">PrismaModule</text>
</g>
<!-- ProductModule -->
<g id="node2" class="node">
<title>ProductModule</title>
<polygon fill="#8dd3c7" stroke="black" points="195.6,-149.8 192.6,-153.8 171.6,-153.8 168.6,-149.8 92.4,-149.8 92.4,-113.8 195.6,-113.8 195.6,-149.8"/>
<text text-anchor="middle" x="144" y="-127.6" font-family="Times,serif" font-size="14.00">ProductModule</text>
</g>
<!-- PrismaModule&#45;&gt;ProductModule -->
<g id="edge1" class="edge">
<title>PrismaModule&#45;&gt;ProductModule</title>
<path fill="none" stroke="black" d="M107.33,-84.91C107.33,-84.91 107.33,-103.79 107.33,-103.79"/>
<polygon fill="black" stroke="black" points="103.83,-103.79 107.33,-113.79 110.83,-103.79 103.83,-103.79"/>
</g>
<!-- ProductService -->
<g id="node3" class="node">
<title>ProductService</title>
<ellipse fill="#fdb462" stroke="black" cx="216" cy="-66.8" rx="70.07" ry="18"/>
<text text-anchor="middle" x="216" y="-62.6" font-family="Times,serif" font-size="14.00">ProductService</text>
</g>
<!-- ProductService&#45;&gt;ProductModule -->
<g id="edge2" class="edge">
<title>ProductService&#45;&gt;ProductModule</title>
<path fill="none" stroke="black" d="M170.76,-80.58C170.76,-80.58 170.76,-103.35 170.76,-103.35"/>
<polygon fill="black" stroke="black" points="167.26,-103.35 170.76,-113.35 174.26,-103.35 167.26,-103.35"/>
</g>
</g>
</svg>
