<?xml version="1.0" encoding="UTF-8" standalone="no"?>
<!DOCTYPE svg PUBLIC "-//W3C//DTD SVG 1.1//EN"
 "http://www.w3.org/Graphics/SVG/1.1/DTD/svg11.dtd">
<!-- Generated by graphviz version 2.47.3 (20210619.1520)
 -->
<!-- Title: dependencies Pages: 1 -->
<svg width="318pt" height="174pt"
 viewBox="0.00 0.00 318.00 173.80" xmlns="http://www.w3.org/2000/svg" xmlns:xlink="http://www.w3.org/1999/xlink">
<g id="graph0" class="graph" transform="scale(1 1) rotate(0) translate(4 169.8)">
<title>dependencies</title>
<polygon fill="white" stroke="transparent" points="-4,4 -4,-169.8 314,-169.8 314,4 -4,4"/>
<text text-anchor="middle" x="155" y="-8.2" font-family="sans-serif" font-size="14.00">dependencies</text>
<g id="clust1" class="cluster">
<title>cluster_ProductModule</title>
<polygon fill="none" stroke="black" stroke-dasharray="1,5" points="8,-32.8 8,-157.8 302,-157.8 302,-32.8 8,-32.8"/>
</g>
<g id="clust3" class="cluster">
<title>cluster_ProductModule_imports</title>
<polygon fill="none" stroke="black" points="180,-40.8 180,-92.8 294,-92.8 294,-40.8 180,-40.8"/>
</g>
<g id="clust6" class="cluster">
<title>cluster_ProductModule_providers</title>
<polygon fill="none" stroke="black" points="16,-40.8 16,-92.8 172,-92.8 172,-40.8 16,-40.8"/>
</g>
<!-- PrismaModule -->
<g id="node1" class="node">
<title>PrismaModule</title>
<polygon fill="#8dd3c7" stroke="black" points="286.43,-84.8 283.43,-88.8 262.43,-88.8 259.43,-84.8 187.57,-84.8 187.57,-48.8 286.43,-48.8 286.43,-84.8"/>
<text text-anchor="middle" x="237" y="-62.6" font-family="Times,serif" font-size="14.00">PrismaModule</text>
</g>
<!-- ProductModule -->
<g id="node2" class="node">
<title>ProductModule</title>
<polygon fill="#8dd3c7" stroke="black" points="216.6,-149.8 213.6,-153.8 192.6,-153.8 189.6,-149.8 113.4,-149.8 113.4,-113.8 216.6,-113.8 216.6,-149.8"/>
<text text-anchor="middle" x="165" y="-127.6" font-family="Times,serif" font-size="14.00">ProductModule</text>
</g>
<!-- PrismaModule&#45;&gt;ProductModule -->
<g id="edge1" class="edge">
<title>PrismaModule&#45;&gt;ProductModule</title>
<path fill="none" stroke="black" d="M202.17,-84.91C202.17,-84.91 202.17,-103.79 202.17,-103.79"/>
<polygon fill="black" stroke="black" points="198.67,-103.79 202.17,-113.79 205.67,-103.79 198.67,-103.79"/>
</g>
<!-- ProductService -->
<g id="node3" class="node">
<title>ProductService</title>
<ellipse fill="#fdb462" stroke="black" cx="94" cy="-66.8" rx="70.06" ry="18"/>
<text text-anchor="middle" x="94" y="-62.6" font-family="Times,serif" font-size="14.00">ProductService</text>
</g>
<!-- ProductService&#45;&gt;ProductModule -->
<g id="edge2" class="edge">
<title>ProductService&#45;&gt;ProductModule</title>
<path fill="none" stroke="black" d="M138.74,-80.9C138.74,-80.9 138.74,-103.52 138.74,-103.52"/>
<polygon fill="black" stroke="black" points="135.24,-103.52 138.74,-113.52 142.24,-103.52 135.24,-103.52"/>
</g>
</g>
</svg>
