<?xml version="1.0" encoding="UTF-8" standalone="no"?>
<!DOCTYPE svg PUBLIC "-//W3C//DTD SVG 1.1//EN"
 "http://www.w3.org/Graphics/SVG/1.1/DTD/svg11.dtd">
<!-- Generated by graphviz version 2.47.3 (20210619.1520)
 -->
<!-- Title: dependencies Pages: 1 -->
<svg width="615pt" height="174pt"
 viewBox="0.00 0.00 615.00 173.80" xmlns="http://www.w3.org/2000/svg" xmlns:xlink="http://www.w3.org/1999/xlink">
<g id="graph0" class="graph" transform="scale(1 1) rotate(0) translate(4 169.8)">
<title>dependencies</title>
<polygon fill="white" stroke="transparent" points="-4,4 -4,-169.8 611,-169.8 611,4 -4,4"/>
<text text-anchor="middle" x="303.5" y="-8.2" font-family="sans-serif" font-size="14.00">dependencies</text>
<g id="clust1" class="cluster">
<title>cluster_AppModule</title>
<polygon fill="none" stroke="black" stroke-dasharray="1,5" points="8,-32.8 8,-157.8 599,-157.8 599,-32.8 8,-32.8"/>
</g>
<g id="clust3" class="cluster">
<title>cluster_AppModule_imports</title>
<polygon fill="none" stroke="black" points="16,-40.8 16,-92.8 591,-92.8 591,-40.8 16,-40.8"/>
</g>
<!-- AuthModule -->
<g id="node1" class="node">
<title>AuthModule</title>
<polygon fill="#8dd3c7" stroke="black" points="582.55,-84.8 579.55,-88.8 558.55,-88.8 555.55,-84.8 495.45,-84.8 495.45,-48.8 582.55,-48.8 582.55,-84.8"/>
<text text-anchor="middle" x="539" y="-62.6" font-family="Times,serif" font-size="14.00">AuthModule</text>
</g>
<!-- AppModule -->
<g id="node6" class="node">
<title>AppModule</title>
<polygon fill="#8dd3c7" stroke="black" points="340.66,-149.8 337.66,-153.8 316.66,-153.8 313.66,-149.8 257.34,-149.8 257.34,-113.8 340.66,-113.8 340.66,-149.8"/>
<text text-anchor="middle" x="299" y="-127.6" font-family="Times,serif" font-size="14.00">AppModule</text>
</g>
<!-- AuthModule&#45;&gt;AppModule -->
<g id="edge1" class="edge">
<title>AuthModule&#45;&gt;AppModule</title>
<path fill="none" stroke="black" d="M539,-85.08C539,-106.12 539,-137.8 539,-137.8 539,-137.8 350.8,-137.8 350.8,-137.8"/>
<polygon fill="black" stroke="black" points="350.8,-134.3 340.8,-137.8 350.8,-141.3 350.8,-134.3"/>
</g>
<!-- CategoryModule -->
<g id="node2" class="node">
<title>CategoryModule</title>
<polygon fill="#8dd3c7" stroke="black" points="477.37,-84.8 474.37,-88.8 453.37,-88.8 450.37,-84.8 366.63,-84.8 366.63,-48.8 477.37,-48.8 477.37,-84.8"/>
<text text-anchor="middle" x="422" y="-62.6" font-family="Times,serif" font-size="14.00">CategoryModule</text>
</g>
<!-- CategoryModule&#45;&gt;AppModule -->
<g id="edge2" class="edge">
<title>CategoryModule&#45;&gt;AppModule</title>
<path fill="none" stroke="black" d="M422,-84.82C422,-102.17 422,-125.8 422,-125.8 422,-125.8 350.99,-125.8 350.99,-125.8"/>
<polygon fill="black" stroke="black" points="350.99,-122.3 340.99,-125.8 350.99,-129.3 350.99,-122.3"/>
</g>
<!-- PrismaModule -->
<g id="node3" class="node">
<title>PrismaModule</title>
<polygon fill="#8dd3c7" stroke="black" points="348.43,-84.8 345.43,-88.8 324.43,-88.8 321.43,-84.8 249.57,-84.8 249.57,-48.8 348.43,-48.8 348.43,-84.8"/>
<text text-anchor="middle" x="299" y="-62.6" font-family="Times,serif" font-size="14.00">PrismaModule</text>
</g>
<!-- PrismaModule&#45;&gt;AppModule -->
<g id="edge3" class="edge">
<title>PrismaModule&#45;&gt;AppModule</title>
<path fill="none" stroke="black" d="M299,-84.91C299,-84.91 299,-103.79 299,-103.79"/>
<polygon fill="black" stroke="black" points="295.5,-103.79 299,-113.79 302.5,-103.79 295.5,-103.79"/>
</g>
<!-- ProductModule -->
<g id="node4" class="node">
<title>ProductModule</title>
<polygon fill="#8dd3c7" stroke="black" points="231.6,-84.8 228.6,-88.8 207.6,-88.8 204.6,-84.8 128.4,-84.8 128.4,-48.8 231.6,-48.8 231.6,-84.8"/>
<text text-anchor="middle" x="180" y="-62.6" font-family="Times,serif" font-size="14.00">ProductModule</text>
</g>
<!-- ProductModule&#45;&gt;AppModule -->
<g id="edge4" class="edge">
<title>ProductModule&#45;&gt;AppModule</title>
<path fill="none" stroke="black" d="M180,-84.82C180,-102.17 180,-125.8 180,-125.8 180,-125.8 247.05,-125.8 247.05,-125.8"/>
<polygon fill="black" stroke="black" points="247.05,-129.3 257.05,-125.8 247.05,-122.3 247.05,-129.3"/>
</g>
<!-- UserModule -->
<g id="node5" class="node">
<title>UserModule</title>
<polygon fill="#8dd3c7" stroke="black" points="109.98,-84.8 106.98,-88.8 85.98,-88.8 82.98,-84.8 24.02,-84.8 24.02,-48.8 109.98,-48.8 109.98,-84.8"/>
<text text-anchor="middle" x="67" y="-62.6" font-family="Times,serif" font-size="14.00">UserModule</text>
</g>
<!-- UserModule&#45;&gt;AppModule -->
<g id="edge5" class="edge">
<title>UserModule&#45;&gt;AppModule</title>
<path fill="none" stroke="black" d="M67,-85.08C67,-106.12 67,-137.8 67,-137.8 67,-137.8 247.26,-137.8 247.26,-137.8"/>
<polygon fill="black" stroke="black" points="247.26,-141.3 257.26,-137.8 247.26,-134.3 247.26,-141.3"/>
</g>
</g>
</svg>
