<?xml version="1.0" encoding="UTF-8" standalone="no"?>
<!DOCTYPE svg PUBLIC "-//W3C//DTD SVG 1.1//EN"
 "http://www.w3.org/Graphics/SVG/1.1/DTD/svg11.dtd">
<!-- Generated by graphviz version 3.0.0 (20220226.1711)
 -->
<!-- Title: dependencies Pages: 1 -->
<svg width="328pt" height="174pt"
 viewBox="0.00 0.00 328.00 173.80" xmlns="http://www.w3.org/2000/svg" xmlns:xlink="http://www.w3.org/1999/xlink">
<g id="graph0" class="graph" transform="scale(1 1) rotate(0) translate(4 169.8)">
<title>dependencies</title>
<polygon fill="white" stroke="transparent" points="-4,4 -4,-169.8 324,-169.8 324,4 -4,4"/>
<text text-anchor="middle" x="160" y="-8.2" font-family="sans-serif" font-size="14.00">dependencies</text>
<g id="clust1" class="cluster">
<title>cluster_PurchaseModule</title>
<polygon fill="none" stroke="black" stroke-dasharray="1,5" points="8,-32.8 8,-157.8 312,-157.8 312,-32.8 8,-32.8"/>
</g>
<g id="clust3" class="cluster">
<title>cluster_PurchaseModule_imports</title>
<polygon fill="none" stroke="black" points="190,-40.8 190,-92.8 304,-92.8 304,-40.8 190,-40.8"/>
</g>
<g id="clust6" class="cluster">
<title>cluster_PurchaseModule_providers</title>
<polygon fill="none" stroke="black" points="16,-40.8 16,-92.8 182,-92.8 182,-40.8 16,-40.8"/>
</g>
<!-- PrismaModule -->
<g id="node1" class="node">
<title>PrismaModule</title>
<polygon fill="#8dd3c7" stroke="black" points="296.44,-84.8 293.44,-88.8 272.44,-88.8 269.44,-84.8 197.56,-84.8 197.56,-48.8 296.44,-48.8 296.44,-84.8"/>
<text text-anchor="middle" x="247" y="-62.6" font-family="Times,serif" font-size="14.00">PrismaModule</text>
</g>
<!-- PurchaseModule -->
<g id="node2" class="node">
<title>PurchaseModule</title>
<polygon fill="#8dd3c7" stroke="black" points="228.09,-149.8 225.09,-153.8 204.09,-153.8 201.09,-149.8 117.91,-149.8 117.91,-113.8 228.09,-113.8 228.09,-149.8"/>
<text text-anchor="middle" x="173" y="-127.6" font-family="Times,serif" font-size="14.00">PurchaseModule</text>
</g>
<!-- PrismaModule&#45;&gt;PurchaseModule -->
<g id="edge1" class="edge">
<title>PrismaModule&#45;&gt;PurchaseModule</title>
<path fill="none" stroke="black" d="M212.91,-84.91C212.91,-84.91 212.91,-103.79 212.91,-103.79"/>
<polygon fill="black" stroke="black" points="209.41,-103.79 212.91,-113.79 216.41,-103.79 209.41,-103.79"/>
</g>
<!-- PurchaseService -->
<g id="node3" class="node">
<title>PurchaseService</title>
<ellipse fill="#fdb462" stroke="black" cx="99" cy="-66.8" rx="74.71" ry="18"/>
<text text-anchor="middle" x="99" y="-62.6" font-family="Times,serif" font-size="14.00">PurchaseService</text>
</g>
<!-- PurchaseService&#45;&gt;PurchaseModule -->
<g id="edge2" class="edge">
<title>PurchaseService&#45;&gt;PurchaseModule</title>
<path fill="none" stroke="black" d="M145.9,-80.9C145.9,-80.9 145.9,-103.52 145.9,-103.52"/>
<polygon fill="black" stroke="black" points="142.4,-103.52 145.9,-113.52 149.4,-103.52 142.4,-103.52"/>
</g>
</g>
</svg>
