<?xml version="1.0" encoding="UTF-8" standalone="no"?>
<!DOCTYPE svg PUBLIC "-//W3C//DTD SVG 1.1//EN"
 "http://www.w3.org/Graphics/SVG/1.1/DTD/svg11.dtd">
<!-- Generated by graphviz version 3.0.0 (20220226.1711)
 -->
<!-- Title: dependencies Pages: 1 -->
<svg width="328pt" height="174pt"
 viewBox="0.00 0.00 328.00 173.80" xmlns="http://www.w3.org/2000/svg" xmlns:xlink="http://www.w3.org/1999/xlink">
<g id="graph0" class="graph" transform="scale(1 1) rotate(0) translate(4 169.8)">
<title>dependencies</title>
<polygon fill="white" stroke="transparent" points="-4,4 -4,-169.8 324,-169.8 324,4 -4,4"/>
<text text-anchor="middle" x="160" y="-8.2" font-family="sans-serif" font-size="14.00">dependencies</text>
<g id="clust1" class="cluster">
<title>cluster_CategoryModule</title>
<polygon fill="none" stroke="black" stroke-dasharray="1,5" points="8,-32.8 8,-157.8 312,-157.8 312,-32.8 8,-32.8"/>
</g>
<g id="clust6" class="cluster">
<title>cluster_CategoryModule_providers</title>
<polygon fill="none" stroke="black" points="138,-40.8 138,-92.8 304,-92.8 304,-40.8 138,-40.8"/>
</g>
<g id="clust3" class="cluster">
<title>cluster_CategoryModule_imports</title>
<polygon fill="none" stroke="black" points="16,-40.8 16,-92.8 130,-92.8 130,-40.8 16,-40.8"/>
</g>
<!-- PrismaModule -->
<g id="node1" class="node">
<title>PrismaModule</title>
<polygon fill="#8dd3c7" stroke="black" points="122.44,-84.8 119.44,-88.8 98.44,-88.8 95.44,-84.8 23.56,-84.8 23.56,-48.8 122.44,-48.8 122.44,-84.8"/>
<text text-anchor="middle" x="73" y="-62.6" font-family="Times,serif" font-size="14.00">PrismaModule</text>
</g>
<!-- CategoryModule -->
<g id="node2" class="node">
<title>CategoryModule</title>
<polygon fill="#8dd3c7" stroke="black" points="202.37,-149.8 199.37,-153.8 178.37,-153.8 175.37,-149.8 91.63,-149.8 91.63,-113.8 202.37,-113.8 202.37,-149.8"/>
<text text-anchor="middle" x="147" y="-127.6" font-family="Times,serif" font-size="14.00">CategoryModule</text>
</g>
<!-- PrismaModule&#45;&gt;CategoryModule -->
<g id="edge1" class="edge">
<title>PrismaModule&#45;&gt;CategoryModule</title>
<path fill="none" stroke="black" d="M106.89,-84.91C106.89,-84.91 106.89,-103.79 106.89,-103.79"/>
<polygon fill="black" stroke="black" points="103.39,-103.79 106.89,-113.79 110.39,-103.79 103.39,-103.79"/>
</g>
<!-- CategoryService -->
<g id="node3" class="node">
<title>CategoryService</title>
<ellipse fill="#fdb462" stroke="black" cx="221" cy="-66.8" rx="75.28" ry="18"/>
<text text-anchor="middle" x="221" y="-62.6" font-family="Times,serif" font-size="14.00">CategoryService</text>
</g>
<!-- CategoryService&#45;&gt;CategoryModule -->
<g id="edge2" class="edge">
<title>CategoryService&#45;&gt;CategoryModule</title>
<path fill="none" stroke="black" d="M174.02,-80.9C174.02,-80.9 174.02,-103.52 174.02,-103.52"/>
<polygon fill="black" stroke="black" points="170.52,-103.52 174.02,-113.52 177.52,-103.52 170.52,-103.52"/>
</g>
</g>
</svg>
